<svg width="243" height="39" viewBox="0 0 243 39" fill="none" xmlns="http://www.w3.org/2000/svg">
<path d="M57.3956 19.1572C57.3956 20.4052 57.2036 21.5092 56.8196 22.4692C56.4516 23.4292 55.9316 24.2372 55.2596 24.8932C54.5876 25.5332 53.7956 26.0212 52.8836 26.3572C51.9716 26.6932 50.9796 26.8612 49.9076 26.8612C48.8356 26.8612 47.8436 26.6932 46.9316 26.3572C46.0196 26.0212 45.2276 25.5332 44.5556 24.8932C43.8996 24.2372 43.3796 23.4292 42.9956 22.4692C42.6276 21.5092 42.4436 20.4052 42.4436 19.1572C42.4436 17.9092 42.6356 16.8132 43.0196 15.8692C43.4036 14.9092 43.9316 14.1092 44.6036 13.4692C45.2756 12.8132 46.0596 12.3172 46.9556 11.9812C47.8676 11.6452 48.8516 11.4772 49.9076 11.4772C50.9636 11.4772 51.9476 11.6452 52.8596 11.9812C53.7716 12.3172 54.5636 12.8132 55.2356 13.4692C55.9076 14.1092 56.4356 14.9092 56.8196 15.8692C57.2036 16.8132 57.3956 17.9092 57.3956 19.1572ZM53.5076 19.1572C53.5076 17.6212 53.1796 16.4692 52.5236 15.7012C51.8836 14.9172 51.0116 14.5252 49.9076 14.5252C48.8196 14.5252 47.9476 14.9172 47.2916 15.7012C46.6356 16.4692 46.3076 17.6212 46.3076 19.1572C46.3076 20.7092 46.6276 21.8772 47.2676 22.6612C47.9236 23.4292 48.8036 23.8132 49.9076 23.8132C51.0116 23.8132 51.8836 23.4292 52.5236 22.6612C53.1796 21.8772 53.5076 20.7092 53.5076 19.1572ZM72.8563 25.9972C72.6323 26.1892 72.3283 26.3412 71.9443 26.4532C71.5603 26.5812 71.1043 26.6452 70.5763 26.6452C70.0323 26.6452 69.5203 26.5572 69.0403 26.3812C68.5603 26.2052 68.1603 25.8052 67.8403 25.1812L65.0563 19.8052C64.7843 19.2932 64.5283 18.7812 64.2883 18.2692C64.0643 17.7572 63.8403 17.2212 63.6163 16.6612L63.4483 16.7092C63.5283 17.6692 63.5763 18.5892 63.5923 19.4692C63.6083 20.3332 63.6163 21.1732 63.6163 21.9892V26.4532C63.4563 26.4852 63.2163 26.5172 62.8963 26.5492C62.5923 26.5972 62.2723 26.6212 61.9363 26.6212C61.2163 26.6212 60.7123 26.5012 60.4243 26.2612C60.1363 26.0052 59.9923 25.5572 59.9923 24.9172V12.5572C60.1843 12.2852 60.4883 12.0772 60.9043 11.9332C61.3363 11.7732 61.7923 11.6932 62.2723 11.6932C62.8323 11.6932 63.3443 11.7812 63.8083 11.9572C64.2883 12.1332 64.6883 12.5252 65.0083 13.1332L67.8163 18.5332C68.0883 19.0452 68.3363 19.5572 68.5603 20.0692C68.8003 20.5812 69.0323 21.1172 69.2563 21.6772L69.3523 21.6532C69.2723 20.5812 69.2243 19.5652 69.2083 18.6052C69.2083 17.6452 69.2083 16.7252 69.2083 15.8452V11.8612C69.3683 11.8292 69.6003 11.7892 69.9043 11.7412C70.2243 11.6932 70.5603 11.6692 70.9123 11.6692C71.6323 11.6692 72.1363 11.7972 72.4243 12.0532C72.7123 12.2932 72.8563 12.7332 72.8563 13.3732V25.9972ZM78.1796 26.5012C77.5716 26.5012 77.0836 26.3252 76.7156 25.9732C76.3636 25.6052 76.1876 25.1172 76.1876 24.5092V11.8612C76.3636 11.8292 76.6116 11.7892 76.9316 11.7412C77.2676 11.6932 77.5956 11.6692 77.9156 11.6692C78.6356 11.6692 79.1556 11.7892 79.4756 12.0292C79.7956 12.2692 79.9556 12.7412 79.9556 13.4452V23.4532H85.7156C85.8116 23.6132 85.8996 23.8212 85.9796 24.0772C86.0756 24.3332 86.1236 24.6132 86.1236 24.9172C86.1236 25.4452 86.0036 25.8452 85.7636 26.1172C85.5396 26.3732 85.2276 26.5012 84.8276 26.5012H78.1796ZM90.4614 26.6212C89.7094 26.6212 89.1814 26.4932 88.8774 26.2372C88.5894 25.9812 88.4454 25.5172 88.4454 24.8452V11.8612C88.6214 11.8292 88.8694 11.7892 89.1894 11.7412C89.5254 11.6932 89.8614 11.6692 90.1974 11.6692C90.9174 11.6692 91.4294 11.7892 91.7334 12.0292C92.0534 12.2692 92.2134 12.7412 92.2134 13.4452V26.4292C92.0374 26.4772 91.7894 26.5172 91.4694 26.5492C91.1494 26.5972 90.8134 26.6212 90.4614 26.6212ZM108.434 25.9972C108.21 26.1892 107.906 26.3412 107.522 26.4532C107.138 26.5812 106.682 26.6452 106.154 26.6452C105.61 26.6452 105.098 26.5572 104.618 26.3812C104.138 26.2052 103.738 25.8052 103.418 25.1812L100.634 19.8052C100.362 19.2932 100.106 18.7812 99.8664 18.2692C99.6424 17.7572 99.4184 17.2212 99.1944 16.6612L99.0264 16.7092C99.1064 17.6692 99.1544 18.5892 99.1704 19.4692C99.1864 20.3332 99.1944 21.1732 99.1944 21.9892V26.4532C99.0344 26.4852 98.7944 26.5172 98.4744 26.5492C98.1704 26.5972 97.8504 26.6212 97.5144 26.6212C96.7944 26.6212 96.2904 26.5012 96.0024 26.2612C95.7144 26.0052 95.5704 25.5572 95.5704 24.9172V12.5572C95.7624 12.2852 96.0664 12.0772 96.4824 11.9332C96.9144 11.7732 97.3704 11.6932 97.8504 11.6932C98.4104 11.6932 98.9224 11.7812 99.3864 11.9572C99.8664 12.1332 100.266 12.5252 100.586 13.1332L103.394 18.5332C103.666 19.0452 103.914 19.5572 104.138 20.0692C104.378 20.5812 104.61 21.1172 104.834 21.6772L104.93 21.6532C104.85 20.5812 104.802 19.5652 104.786 18.6052C104.786 17.6452 104.786 16.7252 104.786 15.8452V11.8612C104.946 11.8292 105.178 11.7892 105.482 11.7412C105.802 11.6932 106.138 11.6692 106.49 11.6692C107.21 11.6692 107.714 11.7972 108.002 12.0532C108.29 12.2932 108.434 12.7332 108.434 13.3732V25.9972ZM113.758 26.5012C113.15 26.5012 112.662 26.3252 112.294 25.9732C111.942 25.6052 111.766 25.1172 111.766 24.5092V13.9012C111.766 13.2932 111.942 12.8132 112.294 12.4612C112.662 12.0932 113.15 11.9092 113.758 11.9092H121.702C121.798 12.0692 121.886 12.2692 121.966 12.5092C122.046 12.7492 122.086 13.0212 122.086 13.3252C122.086 13.8532 121.966 14.2452 121.726 14.5012C121.502 14.7572 121.182 14.8852 120.766 14.8852H115.438V17.5732H121.006C121.102 17.7332 121.19 17.9332 121.27 18.1732C121.35 18.4132 121.39 18.6852 121.39 18.9892C121.39 19.5172 121.278 19.9092 121.054 20.1652C120.83 20.4052 120.51 20.5252 120.094 20.5252H115.438V23.5252H121.798C121.894 23.6852 121.982 23.8932 122.062 24.1492C122.142 24.4052 122.182 24.6852 122.182 24.9892C122.182 25.5172 122.062 25.9012 121.822 26.1412C121.598 26.3812 121.286 26.5012 120.886 26.5012H113.758ZM136.393 14.9332V26.4292C136.217 26.4772 135.969 26.5172 135.649 26.5492C135.329 26.5972 134.993 26.6212 134.641 26.6212C133.889 26.6212 133.361 26.4932 133.057 26.2372C132.753 25.9812 132.601 25.5172 132.601 24.8452V14.9332H128.833C128.737 14.7732 128.641 14.5652 128.545 14.3092C128.465 14.0532 128.425 13.7732 128.425 13.4692C128.425 12.9252 128.545 12.5332 128.785 12.2932C129.025 12.0372 129.353 11.9092 129.769 11.9092H140.257C140.369 12.0692 140.465 12.2772 140.545 12.5332C140.625 12.7892 140.665 13.0692 140.665 13.3732C140.665 13.9012 140.545 14.2932 140.305 14.5492C140.065 14.8052 139.737 14.9332 139.321 14.9332H136.393ZM156.419 19.1572C156.419 20.4052 156.227 21.5092 155.843 22.4692C155.475 23.4292 154.955 24.2372 154.283 24.8932C153.611 25.5332 152.819 26.0212 151.907 26.3572C150.995 26.6932 150.003 26.8612 148.931 26.8612C147.859 26.8612 146.867 26.6932 145.955 26.3572C145.043 26.0212 144.251 25.5332 143.579 24.8932C142.923 24.2372 142.403 23.4292 142.019 22.4692C141.651 21.5092 141.467 20.4052 141.467 19.1572C141.467 17.9092 141.659 16.8132 142.043 15.8692C142.427 14.9092 142.955 14.1092 143.627 13.4692C144.299 12.8132 145.083 12.3172 145.979 11.9812C146.891 11.6452 147.875 11.4772 148.931 11.4772C149.987 11.4772 150.971 11.6452 151.883 11.9812C152.795 12.3172 153.587 12.8132 154.259 13.4692C154.931 14.1092 155.459 14.9092 155.843 15.8692C156.227 16.8132 156.419 17.9092 156.419 19.1572ZM152.531 19.1572C152.531 17.6212 152.203 16.4692 151.547 15.7012C150.907 14.9172 150.035 14.5252 148.931 14.5252C147.843 14.5252 146.971 14.9172 146.315 15.7012C145.659 16.4692 145.331 17.6212 145.331 19.1572C145.331 20.7092 145.651 21.8772 146.291 22.6612C146.947 23.4292 147.827 23.8132 148.931 23.8132C150.035 23.8132 150.907 23.4292 151.547 22.6612C152.203 21.8772 152.531 20.7092 152.531 19.1572ZM168.448 19.1812C168.448 17.6292 168.064 16.4772 167.296 15.7252C166.544 14.9572 165.56 14.5732 164.344 14.5732C164.056 14.5732 163.784 14.5812 163.528 14.5972C163.272 14.6132 163.016 14.6452 162.76 14.6932V23.6212C162.968 23.6692 163.216 23.7092 163.504 23.7412C163.808 23.7572 164.096 23.7652 164.368 23.7652C165.616 23.7652 166.608 23.3892 167.344 22.6372C168.08 21.8692 168.448 20.7172 168.448 19.1812ZM172.336 19.1332C172.336 20.4132 172.144 21.5332 171.76 22.4932C171.376 23.4532 170.832 24.2532 170.128 24.8932C169.44 25.5332 168.6 26.0132 167.608 26.3332C166.632 26.6532 165.544 26.8132 164.344 26.8132C164.072 26.8132 163.76 26.8052 163.408 26.7892C163.072 26.7732 162.72 26.7412 162.352 26.6932C162 26.6612 161.64 26.6052 161.272 26.5252C160.904 26.4612 160.568 26.3732 160.264 26.2612C159.432 25.9572 159.016 25.4132 159.016 24.6292V13.2052C159.016 12.8852 159.096 12.6372 159.256 12.4612C159.432 12.2852 159.68 12.1412 160 12.0292C160.656 11.8212 161.352 11.6852 162.088 11.6212C162.824 11.5572 163.496 11.5252 164.104 11.5252C165.336 11.5252 166.456 11.6772 167.464 11.9812C168.472 12.2852 169.336 12.7572 170.056 13.3972C170.776 14.0212 171.336 14.8132 171.736 15.7732C172.136 16.7172 172.336 17.8372 172.336 19.1332ZM189.138 19.1572C189.138 20.4052 188.946 21.5092 188.562 22.4692C188.194 23.4292 187.674 24.2372 187.002 24.8932C186.33 25.5332 185.538 26.0212 184.626 26.3572C183.714 26.6932 182.722 26.8612 181.65 26.8612C180.578 26.8612 179.586 26.6932 178.674 26.3572C177.762 26.0212 176.97 25.5332 176.298 24.8932C175.642 24.2372 175.122 23.4292 174.738 22.4692C174.37 21.5092 174.186 20.4052 174.186 19.1572C174.186 17.9092 174.378 16.8132 174.762 15.8692C175.146 14.9092 175.674 14.1092 176.346 13.4692C177.018 12.8132 177.802 12.3172 178.698 11.9812C179.61 11.6452 180.594 11.4772 181.65 11.4772C182.706 11.4772 183.69 11.6452 184.602 11.9812C185.514 12.3172 186.306 12.8132 186.978 13.4692C187.65 14.1092 188.178 14.9092 188.562 15.8692C188.946 16.8132 189.138 17.9092 189.138 19.1572ZM185.25 19.1572C185.25 17.6212 184.922 16.4692 184.266 15.7012C183.626 14.9172 182.754 14.5252 181.65 14.5252C180.562 14.5252 179.69 14.9172 179.034 15.7012C178.378 16.4692 178.05 17.6212 178.05 19.1572C178.05 20.7092 178.37 21.8772 179.01 22.6612C179.666 23.4292 180.546 23.8132 181.65 23.8132C182.754 23.8132 183.626 23.4292 184.266 22.6612C184.922 21.8772 185.25 20.7092 185.25 19.1572ZM198.531 26.5012C197.923 26.5012 197.435 26.3252 197.067 25.9732C196.715 25.6052 196.539 25.1172 196.539 24.5092V11.8612C196.715 11.8292 196.963 11.7892 197.283 11.7412C197.619 11.6932 197.947 11.6692 198.267 11.6692C198.987 11.6692 199.507 11.7892 199.827 12.0292C200.147 12.2692 200.307 12.7412 200.307 13.4452V23.4532H206.067C206.163 23.6132 206.251 23.8212 206.331 24.0772C206.427 24.3332 206.475 24.6132 206.475 24.9172C206.475 25.4452 206.355 25.8452 206.115 26.1172C205.891 26.3732 205.579 26.5012 205.179 26.5012H198.531ZM210.813 26.6212C210.061 26.6212 209.533 26.4932 209.229 26.2372C208.941 25.9812 208.797 25.5172 208.797 24.8452V11.8612C208.973 11.8292 209.221 11.7892 209.541 11.7412C209.877 11.6932 210.213 11.6692 210.549 11.6692C211.269 11.6692 211.781 11.7892 212.085 12.0292C212.405 12.2692 212.565 12.7412 212.565 13.4452V26.4292C212.389 26.4772 212.141 26.5172 211.821 26.5492C211.501 26.5972 211.165 26.6212 210.813 26.6212ZM220.29 23.7892C221.138 23.7892 221.738 23.6452 222.09 23.3572C222.458 23.0532 222.642 22.6932 222.642 22.2772C222.642 21.8932 222.498 21.5892 222.21 21.3652C221.938 21.1252 221.522 20.9172 220.962 20.7412L219.738 20.3572C219.066 20.1492 218.458 19.9252 217.914 19.6852C217.37 19.4292 216.906 19.1332 216.522 18.7972C216.138 18.4452 215.834 18.0372 215.61 17.5732C215.402 17.0932 215.298 16.5172 215.298 15.8452C215.298 14.5012 215.802 13.4372 216.81 12.6532C217.834 11.8692 219.25 11.4772 221.058 11.4772C221.746 11.4772 222.378 11.5252 222.954 11.6212C223.546 11.7172 224.05 11.8692 224.466 12.0772C224.882 12.2692 225.21 12.5092 225.45 12.7972C225.69 13.0852 225.81 13.4212 225.81 13.8052C225.81 14.1732 225.714 14.5012 225.522 14.7892C225.346 15.0612 225.138 15.2932 224.898 15.4852C224.53 15.2292 224.042 15.0132 223.434 14.8372C222.826 14.6612 222.162 14.5732 221.442 14.5732C220.674 14.5732 220.106 14.6932 219.738 14.9332C219.37 15.1732 219.186 15.4772 219.186 15.8452C219.186 16.1652 219.306 16.4132 219.546 16.5892C219.786 16.7492 220.162 16.9172 220.674 17.0932L221.97 17.5252C222.722 17.7812 223.378 18.0612 223.938 18.3652C224.514 18.6532 224.994 18.9892 225.378 19.3732C225.762 19.7412 226.05 20.1732 226.242 20.6692C226.434 21.1492 226.53 21.7012 226.53 22.3252C226.53 22.9972 226.394 23.6132 226.122 24.1732C225.866 24.7172 225.474 25.1892 224.946 25.5892C224.434 25.9892 223.794 26.3012 223.026 26.5252C222.274 26.7492 221.402 26.8612 220.41 26.8612C219.674 26.8612 218.994 26.7972 218.37 26.6692C217.746 26.5572 217.202 26.3892 216.738 26.1652C216.29 25.9412 215.93 25.6692 215.658 25.3492C215.402 25.0132 215.274 24.6372 215.274 24.2212C215.274 23.7892 215.394 23.4292 215.634 23.1412C215.89 22.8532 216.17 22.6212 216.474 22.4452C216.906 22.7972 217.442 23.1092 218.082 23.3812C218.738 23.6532 219.474 23.7892 220.29 23.7892ZM235.439 14.9332V26.4292C235.263 26.4772 235.015 26.5172 234.695 26.5492C234.375 26.5972 234.039 26.6212 233.687 26.6212C232.935 26.6212 232.407 26.4932 232.103 26.2372C231.799 25.9812 231.647 25.5172 231.647 24.8452V14.9332H227.879C227.783 14.7732 227.687 14.5652 227.591 14.3092C227.511 14.0532 227.471 13.7732 227.471 13.4692C227.471 12.9252 227.591 12.5332 227.831 12.2932C228.071 12.0372 228.399 11.9092 228.815 11.9092H239.303C239.415 12.0692 239.511 12.2772 239.591 12.5332C239.671 12.7892 239.711 13.0692 239.711 13.3732C239.711 13.9012 239.591 14.2932 239.351 14.5492C239.111 14.8052 238.783 14.9332 238.367 14.9332H235.439Z" fill="#333333"/>
<g clip-path="url(#clip0_6_488)">
<path d="M30.4729 18.756C30.3871 18.7291 30.3045 18.7223 30.2246 18.7355C30.0525 18.764 29.9119 18.8551 29.8017 19.0093L28.7425 20.488C28.6435 20.6268 28.608 20.7818 28.6364 20.9538L29.4693 25.9895C29.6136 26.8621 29.4271 27.6598 28.9082 28.3842C28.3898 29.1081 27.6942 29.5423 26.8217 29.6866L10.3255 32.4148C9.45302 32.5591 8.65476 32.372 7.93084 31.8536C7.20672 31.3349 6.77278 30.6398 6.62845 29.7671L3.90025 13.2713C3.75597 12.3989 3.94294 11.6007 4.4615 10.8766C4.97994 10.1526 5.67546 9.71851 6.54798 9.5742L23.0443 6.84591C23.3352 6.79781 23.6391 6.78828 23.9562 6.81739C24.0399 6.83051 24.1016 6.83408 24.1407 6.8276C24.3128 6.79914 24.454 6.70808 24.5642 6.55409L25.3751 5.42186C25.5074 5.23725 25.5354 5.03556 25.4582 4.81766C25.3836 4.61269 25.2393 4.4803 25.0258 4.42066C24.2579 4.20864 23.4568 4.17082 22.6241 4.30854L6.12831 7.03674C4.55537 7.29688 3.30272 8.07781 2.37049 9.3795C1.43842 10.6813 1.10236 12.1185 1.36251 13.6915L4.09079 30.1877C4.3509 31.7605 5.13181 33.013 6.43344 33.9453C7.73517 34.8778 9.17256 35.2138 10.7455 34.9537L27.2416 32.2254C28.8144 31.9653 30.0672 31.1844 30.9993 29.8824C31.9316 28.5807 32.2682 27.1434 32.0081 25.5706L30.9652 19.2651C30.9192 18.9878 30.7547 18.8182 30.4729 18.756Z" fill="#333333"/>
<path d="M33.5676 6.55205L31.0257 4.73159C30.656 4.46689 30.2528 4.37062 29.8165 4.44279C29.3807 4.51486 29.0297 4.73586 28.7652 5.10544L18.0585 20.0554L11.9818 15.7032C11.612 15.4383 11.209 15.3422 10.773 15.4143C10.3368 15.4864 9.98638 15.7071 9.7215 16.077L7.90126 18.6186C7.6365 18.9883 7.54007 19.3914 7.61223 19.8277C7.68436 20.2638 7.90541 20.6142 8.27512 20.8791L18.2108 27.9947C18.5806 28.2597 18.9836 28.3557 19.4196 28.2836C19.8557 28.2114 20.2062 27.9909 20.4711 27.6209L33.9412 8.81232C34.2058 8.44273 34.3024 8.03956 34.2303 7.60345C34.1582 7.16733 33.9373 6.81674 33.5676 6.55205Z" fill="#333333"/>
</g>
<defs>
<clipPath id="clip0_6_488">
<rect width="33.4206" height="33.4206" fill="white" transform="translate(0 5.45325) rotate(-9.391)"/>
</clipPath>
</defs>
</svg>
